mtllib materials.mtl
v -2.980232E-08 0.322 0.0900001
v 0.04499999 0.322 0.07794241
v 0.04499999 -0.408 0.07794226
v -2.980232E-08 -0.408 0.08999998
v 0.07794228 0.322 0.04500011
v 0.07794228 -0.408 0.04499999
v 0.09 0.322 1.192093E-07
v 0.09 -0.408 -7.450581E-09
v 0.07794228 0.322 -0.04499988
v 0.07794228 -0.408 -0.04500001
v 0.04500002 0.322 -0.07794216
v 0.04500002 -0.408 -0.0779423
v 1.490116E-08 0.322 -0.08999988
v 1.490116E-08 -0.408 -0.09000002
v -0.04499999 0.322 -0.07794217
v -0.04499999 -0.408 -0.0779423
v -0.07794228 0.322 -0.04499989
v -0.07794228 -0.408 -0.04500002
v -0.09 0.322 9.685755E-08
v -0.09 -0.408 -3.72529E-08
v -0.07794231 0.322 0.04500008
v -0.07794231 -0.408 0.04499996
v -0.04499999 0.322 0.07794241
v -0.04499999 -0.408 0.07794226
v 0 0.612 0
v -0.07794228 0.322 0.04499999
v -0.09 0.322 0
v -0.04499999 0.322 0.07794229
v 0 0.322 0.09
v 0.045 0.322 0.07794229
v 0.07794228 0.322 0.04499999
v 0.09 0.322 -7.450581E-09
v 0.07794228 0.322 -0.04500001
v 0.04499999 0.322 -0.07794229
v 0 0.322 -0.09
v -0.04499999 0.322 -0.07794229
v -0.07794231 0.322 -0.04499998
v 0 0.612 -7.450581E-09
v 0.02464101 0.5220001 0.02000002
v 0 0.5220001 0.03000002
v 0.03 0.5220001 -1.490116E-08
v 0.02 0.5220001 -0.02464106
v -2.980232E-08 0.5220001 -0.03000002
v -0.02464104 0.5220001 -0.02000002
v -0.03000003 0.5220001 0
v -0.01999998 0.5220001 0.02464105
v 0 -0.4079999 -0.09
v -0.04500002 -0.4079999 -0.0779423
v -0.04500002 -0.4879999 -0.0779423
v 1.490116E-08 -0.4879999 -0.09
v -0.07794231 -0.4079999 -0.04500001
v -0.07794228 -0.4879999 -0.04500001
v -0.09 -0.4079999 -1.490116E-08
v -0.09 -0.4879999 -1.490116E-08
v -0.07794231 -0.4079999 0.04499999
v -0.07794228 -0.4879999 0.04499999
v -0.04500002 -0.4079999 0.07794226
v -0.04500002 -0.4879999 0.07794227
v -2.980232E-08 -0.4079999 0.08999998
v 0 -0.4879999 0.09
v 0.04499999 -0.4079999 0.07794227
v 0.045 -0.4879999 0.07794227
v 0.07794227 -0.4079999 0.04499999
v 0.0779423 -0.4879999 0.04499999
v 0.08999997 -0.4079999 0
v 0.08999999 -0.4879999 0
v 0.07794228 -0.4079999 -0.04499999
v 0.0779423 -0.4879999 -0.04499999
v 0.04499996 -0.4079999 -0.0779423
v 0.04499999 -0.4879999 -0.0779423
v 1.490116E-08 -0.488 -0.09000001
v -0.04499999 -0.488 -0.0779423
v -0.04499999 -0.598 -0.07794228
v 1.490116E-08 -0.598 -0.09
v -0.07794228 -0.488 -0.04500002
v -0.07794228 -0.598 -0.045
v -0.09 -0.488 -2.235174E-08
v -0.09 -0.598 0
v -0.07794228 -0.488 0.04499998
v -0.07794228 -0.598 0.04499999
v -0.04500002 -0.488 0.07794226
v -0.04500002 -0.598 0.07794227
v 0 -0.488 0.08999998
v 0 -0.598 0.09
v 0.045 -0.488 0.07794226
v 0.045 -0.598 0.07794227
v 0.07794228 -0.488 0.04499998
v 0.07794228 -0.598 0.04499999
v 0.09 -0.488 -7.450581E-09
v 0.09 -0.598 7.450581E-09
v 0.0779423 -0.488 -0.045
v 0.0779423 -0.598 -0.04499998
v 0.04499999 -0.488 -0.07794231
v 0.04499999 -0.598 -0.07794229
vn 0.2588186 -1.816818E-07 0.965926
vn 0.7071068 -1.17828E-07 0.7071068
vn 0.9659258 -5.794479E-08 0.2588193
vn 0.9659258 6.140056E-08 -0.2588192
vn 0.7071069 1.29601E-07 -0.7071066
vn 0.2588192 1.767277E-07 -0.9659258
vn -0.2588191 1.837756E-07 -0.9659258
vn -0.7071066 1.305679E-07 -0.7071069
vn -0.9659258 2.742334E-08 -0.2588193
vn -0.965926 -6.455166E-08 0.2588187
vn -0.7071068 -1.293296E-07 0.7071068
vn -0.2588188 -1.740278E-07 0.9659259
vn -3.057097E-14 1 1.748456E-07
vn 3.057097E-14 -1 -1.748456E-07
vn -0.8697965 0.4348983 0.2330612
vn -0.6367353 0.4348983 0.6367352
vn -0.233061 0.4348983 0.8697966
vn 0.2330612 0.4348983 0.8697965
vn 0.6367353 0.4348983 0.6367353
vn 0.8697965 0.4348983 0.2330611
vn 0.8697965 0.4348983 -0.2330613
vn 0.6367352 0.4348983 -0.6367353
vn 0.2330611 0.4348983 -0.8697966
vn -0.2330611 0.4348983 -0.8697966
vn -0.6367353 0.4348983 -0.6367351
vn -0.8697966 0.4348983 -0.233061
vn 0 -1 0
vn 0.3592932 0.2951119 0.8853346
vn 0.9194424 0.3064809 0.246364
vn 0.8853347 0.2951117 -0.359293
vn 0.2463627 0.3064811 -0.9194427
vn -0.3592933 0.2951119 -0.8853346
vn -0.9194422 0.3064813 -0.2463641
vn -0.8853341 0.295112 0.3592943
vn -0.2463633 0.3064812 0.9194425
vn -1.748456E-07 -1 0
vn -0.258819 4.522099E-08 -0.9659259
vn -0.7071067 -1.712737E-07 -0.7071069
vn -0.9659259 -1.476999E-07 -0.258819
vn -0.9659258 -3.365141E-07 0.258819
vn -0.7071069 4.678042E-08 0.7071068
vn -0.258819 3.390802E-08 0.9659259
vn 0.2588192 4.374271E-08 0.9659258
vn 0.7071068 3.142157E-07 0.7071068
vn 0.9659259 1.410213E-07 0.2588191
vn 0.9659259 3.098542E-07 -0.2588189
vn 0.7071069 1.317718E-07 -0.7071068
vn 0.258819 9.257007E-08 -0.9659259
vn -1.748456E-07 1 -1.528548E-14
vn 1.748456E-07 -1 1.528548E-14
vn -0.2588188 -1.726699E-07 -0.9659259
vn -0.7071067 -1.060562E-07 -0.7071069
vn -0.9659259 7.235553E-08 -0.258819
vn -0.9659259 -9.26344E-08 0.2588189
vn -0.7071068 8.027564E-08 0.7071068
vn -0.2588192 1.641235E-07 0.9659259
vn 0.258819 8.82846E-08 0.9659259
vn 0.7071069 1.446377E-07 0.7071067
vn 0.9659259 1.166768E-07 0.258819
vn 0.9659259 -2.097206E-08 -0.2588189
vn 0.7071067 -1.424033E-07 -0.7071069
vn 0.258819 -1.49062E-07 -0.9659259
vn 1.528548E-14 1 -1.748456E-07
vn -1.528548E-14 -1 1.748456E-07
vt 0.188509 0.05748348
vt 0.186519 0.06169581
vt 0.1205141 0.03051322
vt 0.1225041 0.02630089
vt 0.1847931 0.06734356
vt 0.1826404 0.07147514
vt 0.1179008 0.03774412
vt 0.1200535 0.03361254
vt 0.1607302 0.1116421
vt 0.1577589 0.1152302
vt 0.1015342 0.06867071
vt 0.1045056 0.06508254
vt 0.03664646 0.1915591
vt 0.03205537 0.1923502
vt 0.0196595 0.1204104
vt 0.02425059 0.1196193
vt -0.1383458 0.1377657
vt -0.1417929 0.1346318
vt -0.0926864 0.08061738
vt -0.08923928 0.08375128
vt -0.179046 0.07973409
vt -0.1813604 0.07569089
vt -0.1180056 0.03942559
vt -0.1156912 0.04346879
vt -0.186519 0.0616958
vt -0.188509 0.05748347
vt -0.1225041 0.02630088
vt -0.1205141 0.03051321
vt -0.1826404 0.07147513
vt -0.1847931 0.06734355
vt -0.1200535 0.03361253
vt -0.1179008 0.03774411
vt -0.1577589 0.1152302
vt -0.1607302 0.1116421
vt -0.1045056 0.06508254
vt -0.1015342 0.0686707
vt -0.03205562 0.1923502
vt -0.0366467 0.1915591
vt -0.02425074 0.1196193
vt -0.01965966 0.1204103
vt 0.1417929 0.1346317
vt 0.1383458 0.1377656
vt 0.08923931 0.08375125
vt 0.09268642 0.08061735
vt 0.1813604 0.07569087
vt 0.179046 0.07973406
vt 0.1156912 0.04346877
vt 0.1180056 0.03942557
vt -0.004952141 -0.03309355
vt -0.0007418541 -0.0350879
vt 0.003901527 -0.03470991
vt 0.00773382 -0.03206087
vt 0.009728162 -0.02785059
vt 0.009350174 -0.0232072
vt 0.006701133 -0.01937491
vt 0.002490852 -0.01738057
vt -0.002152531 -0.01775855
vt -0.005984824 -0.02040759
vt -0.007979169 -0.02461788
vt -0.007601177 -0.02926126
vt 0.007601178 -0.02926126
vt 0.007979167 -0.02461788
vt 0.005984824 -0.02040759
vt 0.002152532 -0.01775855
vt -0.002490852 -0.01738057
vt -0.006701134 -0.01937491
vt -0.009350174 -0.0232072
vt -0.009728163 -0.02785059
vt -0.00773382 -0.03206087
vt -0.003901528 -0.03470991
vt 0.0007418542 -0.0350879
vt 0.004952139 -0.03309355
vt -0.01917818 0.1893403
vt -0.01868111 0.1593592
vt -0.01404308 0.1597981
vt 0.09955075 0.1641009
vt 0.08361331 0.1387019
vt 0.08773994 0.1365397
vt 0.1654495 0.106522
vt 0.1408156 0.08942568
vt 0.1437612 0.08581628
vt 0.1936691 0.06037696
vt 0.1655436 0.04998114
vt 0.1674934 0.04575003
vt 0.20606 0.03009953
vt 0.1765569 0.02474392
vt 0.1777426 0.02023858
vt 0.211532 0.010356
vt 0.1815687 0.009209489
vt 0.182108 0.004582058
vt 0.211532 -0.0259154
vt 0.182108 -0.02014146
vt 0.1815687 -0.02476889
vt -0.2121707 0.003300078
vt -0.1825221 -0.001180706
vt -0.1821859 0.003465889
vt -0.207882 0.02207788
vt -0.1791435 0.01352149
vt -0.178165 0.0180763
vt -0.1979569 0.04906299
vt -0.170952 0.03603052
vt -0.1692592 0.04037084
vt -0.1758958 0.09060571
vt -0.1524232 0.07194691
vt -0.1498163 0.07580799
vt -0.1244816 0.1470054
vt -0.1087809 0.1214593
vt -0.1050133 0.1241997
vt -0.003901502 -0.03470992
vt 0.0007418815 -0.03508791
vt 0.004952165 -0.03309356
vt 0.007601203 -0.02926127
vt 0.007979192 -0.02461788
vt 0.005984847 -0.0204076
vt 0.002152553 -0.01775856
vt -0.002490831 -0.01738057
vt -0.006701113 -0.01937492
vt -0.009350151 -0.02320721
vt -0.009728139 -0.02785059
vt -0.007733794 -0.03206088
vt 0.2070943 0.06208569
vt 0.1978513 0.05971096
vt 0.1989177 0.05727487
vt 0.2125957 0.0582995
vt 0.2034042 0.05595095
vt 0.2040792 0.05399353
vt -0.06051413 0.2133402
vt -0.05950178 0.2038509
vt -0.05693702 0.2045536
vt -0.2134019 0.04779688
vt -0.2046765 0.04407281
vt -0.2040223 0.0460373
vt -0.2046889 0.06590015
vt -0.1967838 0.06055402
vt -0.1956668 0.06296733
vt -0.1411561 0.1513268
vt -0.1357991 0.1434972
vt -0.1341917 0.1448024
vt 0.01373442 0.2058515
vt 0.01166927 0.1965345
vt 0.01432424 0.196383
vt 0.1798785 0.1084316
vt 0.1718704 0.1033454
vt 0.1731198 0.1016943
vt 0.00195074 -0.02724329
vt 0.001837765 -0.0245864
vt 0.0001345207 -0.02340905
vt -0.002522366 -0.02352202
vt -0.003699716 -0.02522527
vt -0.00358674 -0.02788215
vt -0.001883497 -0.02905951
vt 0.0007733917 -0.02894652
vt -0.1205141 0.03051321
vt -0.1225041 0.02630088
vt -0.1152707 0.02288361
vt -0.1132807 0.02709594
vt -0.1179008 0.0377441
vt -0.1200535 0.03361252
vt -0.1129587 0.02991597
vt -0.1108061 0.03404755
vt -0.1015342 0.06867072
vt -0.1045056 0.06508256
vt -0.09834398 0.05998014
vt -0.09537262 0.0635683
vt -0.01965955 0.1204104
vt -0.02425064 0.1196193
vt -0.02289218 0.1117355
vt -0.0183011 0.1125266
vt 0.09268641 0.08061738
vt 0.0892393 0.08375128
vt 0.08385776 0.07783189
vt 0.08730488 0.07469799
vt 0.1180056 0.0394256
vt 0.1156912 0.0434688
vt 0.1087482 0.03949452
vt 0.1110626 0.03545132
vt 0.1225041 0.02630088
vt 0.1205141 0.03051321
vt 0.1132807 0.02709594
vt 0.1152707 0.02288361
vt 0.1200535 0.03361252
vt 0.1179008 0.0377441
vt 0.1108061 0.03404755
vt 0.1129587 0.02991597
vt 0.1045056 0.06508255
vt 0.1015342 0.06867071
vt 0.09537261 0.06356829
vt 0.09834397 0.05998013
vt 0.02425068 0.1196193
vt 0.0196596 0.1204104
vt 0.01830114 0.1125265
vt 0.02289222 0.1117354
vt -0.08923931 0.08375126
vt -0.09268641 0.08061735
vt -0.08730488 0.07469797
vt -0.08385777 0.07783187
vt -0.1156912 0.0434688
vt -0.1180056 0.0394256
vt -0.1110626 0.03545132
vt -0.1087482 0.03949451
vt 0.006701107 -0.0193749
vt 0.002490822 -0.01738055
vt -0.00215256 -0.01775854
vt -0.005984853 -0.02040758
vt -0.007979197 -0.02461786
vt -0.007601208 -0.02926125
vt -0.004952168 -0.03309354
vt -0.000741887 -0.03508789
vt 0.003901496 -0.0347099
vt 0.00773379 -0.03206086
vt 0.009728135 -0.02785058
vt 0.009350145 -0.02320719
vt -0.009350145 -0.02320719
vt -0.009728135 -0.02785058
vt -0.00773379 -0.03206086
vt -0.003901497 -0.0347099
vt 0.0007418875 -0.03508789
vt 0.004952169 -0.03309355
vt 0.00760121 -0.02926125
vt 0.007979197 -0.02461786
vt 0.005984854 -0.02040758
vt 0.00215256 -0.01775854
vt -0.002490822 -0.01738055
vt -0.006701107 -0.0193749
vt -0.1132807 0.02709593
vt -0.1152707 0.02288361
vt -0.1053248 0.01818486
vt -0.1033347 0.02239719
vt -0.110806 0.03404755
vt -0.1129587 0.02991597
vt -0.1032034 0.02483321
vt -0.1010508 0.02896479
vt -0.09537259 0.06356832
vt -0.09834395 0.05998015
vt -0.08987174 0.05296432
vt -0.08690038 0.05655249
vt -0.01830112 0.1125265
vt -0.02289221 0.1117354
vt -0.02102433 0.1008952
vt -0.01643325 0.1016863
vt 0.08730487 0.07469797
vt 0.08385776 0.07783187
vt 0.07645815 0.06969272
vt 0.07990526 0.06655882
vt 0.1110626 0.03545133
vt 0.1087482 0.03949453
vt 0.0992016 0.03402989
vt 0.101516 0.02998669
vt 0.1152707 0.02288361
vt 0.1132807 0.02709594
vt 0.1033347 0.02239719
vt 0.1053247 0.01818486
vt 0.1129587 0.02991597
vt 0.110806 0.03404755
vt 0.1010508 0.02896479
vt 0.1032034 0.02483321
vt 0.09834395 0.05998013
vt 0.09537259 0.0635683
vt 0.08690039 0.05655248
vt 0.08987175 0.05296431
vt 0.0228922 0.1117354
vt 0.01830112 0.1125265
vt 0.01643324 0.1016863
vt 0.02102433 0.1008952
vt -0.08385776 0.07783186
vt -0.08730488 0.07469796
vt -0.07990526 0.06655882
vt -0.07645815 0.06969272
vt -0.1087482 0.03949452
vt -0.1110626 0.03545132
vt -0.101516 0.02998669
vt -0.09920161 0.03402988
vt 0.006701095 -0.01937493
vt 0.00249081 -0.01738058
vt -0.002152573 -0.01775857
vt -0.005984865 -0.02040761
vt -0.00797921 -0.02461789
vt -0.007601222 -0.02926127
vt -0.004952182 -0.03309357
vt -0.0007419008 -0.03508791
vt 0.003901483 -0.03470992
vt 0.007733776 -0.03206088
vt 0.009728121 -0.0278506
vt 0.009350131 -0.02320722
vt -0.009350132 -0.02320722
vt -0.009728121 -0.0278506
vt -0.007733776 -0.03206088
vt -0.003901483 -0.03470992
vt 0.0007419004 -0.03508791
vt 0.004952181 -0.03309357
vt 0.007601222 -0.02926127
vt 0.007979209 -0.02461789
vt 0.005984865 -0.02040761
vt 0.002152572 -0.01775857
vt -0.00249081 -0.01738058
vt -0.006701095 -0.01937493
o group1188961352
g mesh1188961352
usemtl mat12
f 4/4/1 3/3/1 2/2/1 1/1/1
f 3/8/2 6/7/2 5/6/2 2/5/2
f 6/12/3 8/11/3 7/10/3 5/9/3
f 8/16/4 10/15/4 9/14/4 7/13/4
f 10/20/5 12/19/5 11/18/5 9/17/5
f 12/24/6 14/23/6 13/22/6 11/21/6
f 14/28/7 16/27/7 15/26/7 13/25/7
f 16/32/8 18/31/8 17/30/8 15/29/8
f 18/36/9 20/35/9 19/34/9 17/33/9
f 20/40/10 22/39/10 21/38/10 19/37/10
f 22/44/11 24/43/11 23/42/11 21/41/11
f 24/48/12 4/47/12 1/46/12 23/45/12
f 1/60/13 2/59/13 5/58/13 7/57/13 9/56/13 11/55/13 13/54/13 15/53/13 17/52/13 19/51/13 21/50/13 23/49/13
f 24/72/14 22/71/14 20/70/14 18/69/14 16/68/14 14/67/14 12/66/14 10/65/14 8/64/14 6/63/14 3/62/14 4/61/14
o group1731322210
g mesh1731322210
usemtl mat18
f 27/75/15 26/74/15 25/73/15
f 26/78/16 28/77/16 25/76/16
f 28/81/17 29/80/17 25/79/17
f 29/84/18 30/83/18 25/82/18
f 30/87/19 31/86/19 25/85/19
f 31/90/20 32/89/20 25/88/20
f 32/93/21 33/92/21 25/91/21
f 33/96/22 34/95/22 25/94/22
f 34/99/23 35/98/23 25/97/23
f 35/102/24 36/101/24 25/100/24
f 36/105/25 37/104/25 25/103/25
f 37/108/26 27/107/26 25/106/26
f 37/120/27 36/119/27 35/118/27 34/117/27 33/116/27 32/115/27 31/114/27 30/113/27 29/112/27 28/111/27 26/110/27 27/109/27
o group529481830
g mesh529481830
usemtl mat23
f 40/123/28 39/122/28 38/121/28
f 39/126/29 41/125/29 38/124/29
f 41/129/30 42/128/30 38/127/30
f 42/132/31 43/131/31 38/130/31
f 43/135/32 44/134/32 38/133/32
f 44/138/33 45/137/33 38/136/33
f 45/141/34 46/140/34 38/139/34
f 46/144/35 40/143/35 38/142/35
f 46/152/36 45/151/36 44/150/36 43/149/36 42/148/36 41/147/36 39/146/36 40/145/36
o group80125618
g mesh80125618
usemtl mat22
f 50/156/37 49/155/37 48/154/37 47/153/37
f 49/160/38 52/159/38 51/158/38 48/157/38
f 52/164/39 54/163/39 53/162/39 51/161/39
f 54/168/40 56/167/40 55/166/40 53/165/40
f 56/172/41 58/171/41 57/170/41 55/169/41
f 58/176/42 60/175/42 59/174/42 57/173/42
f 60/180/43 62/179/43 61/178/43 59/177/43
f 62/184/44 64/183/44 63/182/44 61/181/44
f 64/188/45 66/187/45 65/186/45 63/185/45
f 66/192/46 68/191/46 67/190/46 65/189/46
f 68/196/47 70/195/47 69/194/47 67/193/47
f 70/200/48 50/199/48 47/198/48 69/197/48
f 47/212/49 48/211/49 51/210/49 53/209/49 55/208/49 57/207/49 59/206/49 61/205/49 63/204/49 65/203/49 67/202/49 69/201/49
f 70/224/50 68/223/50 66/222/50 64/221/50 62/220/50 60/219/50 58/218/50 56/217/50 54/216/50 52/215/50 49/214/50 50/213/50
o group1144415267
g mesh1144415267
usemtl mat15
f 74/228/51 73/227/51 72/226/51 71/225/51
f 73/232/52 76/231/52 75/230/52 72/229/52
f 76/236/53 78/235/53 77/234/53 75/233/53
f 78/240/54 80/239/54 79/238/54 77/237/54
f 80/244/55 82/243/55 81/242/55 79/241/55
f 82/248/56 84/247/56 83/246/56 81/245/56
f 84/252/57 86/251/57 85/250/57 83/249/57
f 86/256/58 88/255/58 87/254/58 85/253/58
f 88/260/59 90/259/59 89/258/59 87/257/59
f 90/264/60 92/263/60 91/262/60 89/261/60
f 92/268/61 94/267/61 93/266/61 91/265/61
f 94/272/62 74/271/62 71/270/62 93/269/62
f 71/284/63 72/283/63 75/282/63 77/281/63 79/280/63 81/279/63 83/278/63 85/277/63 87/276/63 89/275/63 91/274/63 93/273/63
f 94/296/64 92/295/64 90/294/64 88/293/64 86/292/64 84/291/64 82/290/64 80/289/64 78/288/64 76/287/64 73/286/64 74/285/64
